<?xml version="1.0" encoding="UTF-8" standalone="no"?>
        <svg 
    viewBox="3.4423828125 -86.0595703125 448.1689453125 56.9091796875"
    width="444.7265625"
    height="142.96875"
   xmlns="http://www.w3.org/2000/svg"
   xmlns:svg="http://www.w3.org/2000/svg">
   <path d="M49.95-68.55L35.67-68.55L35.67-17.07L49.95-19.63L49.95-68.55ZM35.67-99.76L35.67-72.73L61.08-72.73L70.53-86.57Q70.53-86.57 72.95-84.41Q75.37-82.25 78.85-79.06Q82.32-75.88 85.47-72.88L85.47-72.88L85.47-109.79Q84.16-108.69 81.70-108.44Q79.25-108.18 75.44-109.06L75.44-109.06Q68.12-106.20 57.53-103.75Q46.95-101.29 35.67-99.76L35.67-99.76ZM85.47-110.67L85.47-113.67L85.47-124.22L108.62-113.67L117.92-113.67L128.83-124.37L150-105.62Q148.39-103.42 143.12-103.20L143.12-103.20Q139.89-98.00 135.31-91.30Q130.74-84.59 125.61-77.86Q120.48-71.12 115.50-65.84L115.50-65.84Q125.39-61.01 131.73-54.02Q138.06-47.02 141.10-39.37Q144.14-31.71 144.14-24.76L144.14-24.76Q144.14-16.85 141.54-10.80Q138.94-4.76 132.93-1.32Q126.93 2.12 116.53 2.12L116.53 2.12Q116.53-1.17 116.24-4.91Q115.94-8.64 115.43-11.72Q114.92-14.79 114.18-16.19L114.18-16.19Q113.16-17.80 111.29-19.08Q109.42-20.36 106.49-21.17L106.49-21.17L106.49 8.13Q106.49 8.86 104.44 10.40Q102.39 11.94 98.55 13.26Q94.70 14.58 89.43 14.58L89.43 14.58L85.47 14.58L85.47-24.32Q75.37-18.31 59.18-10.62Q42.99-2.93 19.04 7.03L19.04 7.03Q17.58 10.25 14.87 10.99L14.87 10.99L3.44-12.01L15.45-13.77L15.45-114.48L35.82-105.32Q43.07-110.60 49.77-116.97Q56.47-123.34 60.28-128.39L60.28-128.39L85.47-110.67ZM83.28-68.55L70.39-68.55L70.39-23.36L85.47-26.22L85.47-68.99Q84.59-68.55 83.28-68.55L83.28-68.55ZM119.38-109.50L119.38-109.50L106.49-109.50L106.49-22.78L116.82-22.78Q118.87-22.78 120.12-23.58L120.12-23.58Q123.78-25.56 123.78-31.64L123.78-31.64Q123.78-39.84 120.96-48.93Q118.14-58.01 111.62-65.41L111.62-65.41Q113.01-70.97 114.55-78.77Q116.09-86.57 117.41-94.74Q118.73-102.91 119.38-109.50ZM238.04-127.37L238.04-127.37L269.97-121.80Q269.17-117.92 263.82-117.48L263.82-117.48Q260.23-113.53 255.21-107.92Q250.20-102.32 246.02-97.92L246.02-97.92L266.53-97.92L277.22-110.08L295.83-95.21Q294.87-94.12 293.44-93.16Q292.02-92.21 289.38-91.63L289.38-91.63L289.38 5.57Q289.38 6.15 287.15 7.58Q284.91 9.01 280.85 10.22Q276.78 11.43 271.22 11.43L271.22 11.43L267.48 11.43L267.48-0.59L237.30-0.59L237.30 7.03Q237.30 8.20 232.80 10.40Q228.30 12.60 220.17 12.60L220.17 12.60L216.43 12.60L216.43-48.27Q214.09-45.48 210.06-45.04Q206.03-44.60 201.93-48.27L201.93-48.27Q201.71-53.69 199.95-59.25Q198.19-64.82 196.07-69.43L196.07-69.43L196.07 8.42Q196.07 9.23 193.51 10.62Q190.94 12.01 187.10 13.15Q183.25 14.28 179.22 14.28L179.22 14.28L175.05 14.28L175.05-44.09Q170.58-37.94 165.20-32.23Q159.81-26.51 153.59-21.61L153.59-21.61L151.83-23.07Q157.18-31.49 161.35-41.89Q165.53-52.29 168.53-63.54Q171.53-74.78 173.36-85.77L173.36-85.77L156.74-85.77L155.57-90.01L175.05-90.01L175.05-127.95L201.64-125.39Q201.34-123.71 200.28-122.61Q199.22-121.51 196.07-121.07L196.07-121.07L196.07-90.31L203.98-103.34Q203.98-103.34 206.07-101.22Q208.15-99.10 211.05-96.06Q213.94-93.02 216.43-90.16L216.43-90.16L216.43-106.35L238.18-98.22Q238.33-104.44 238.29-112.65Q238.26-120.85 238.04-127.37ZM214.23-85.77L196.07-85.77L196.07-72.88Q204.35-70.75 209.29-67.68Q214.23-64.60 216.43-61.23L216.43-61.23L216.43-86.28Q215.55-85.77 214.23-85.77L214.23-85.77ZM267.48-50.24L237.30-50.24L237.30-4.83L267.48-4.83L267.48-50.24ZM237.30-93.75L237.30-54.42L267.48-54.42L267.48-93.75L237.30-93.75ZM385.77-127.81L385.77-127.81L415.21-121.07Q414.77-119.60 413.34-118.65Q411.91-117.70 409.20-117.63L409.20-117.63Q405.18-104.08 399.76-92.87L399.76-92.87L418.95-92.87L429.27-106.93Q429.27-106.93 431.21-105.40Q433.15-103.86 436.12-101.40Q439.09-98.95 442.31-96.20Q445.53-93.46 448.17-91.04L448.17-91.04Q447.51-88.62 443.85-88.62L443.85-88.62L435.28-88.62Q433.37-71.41 428.80-55.99Q424.22-40.58 415.36-27.76L415.36-27.76Q428.61-14.06 448.02-5.27L448.02-5.27L447.58-3.74Q439.75-2.05 435.24 2.45Q430.74 6.96 428.69 14.28L428.69 14.28Q420.92 8.50 414.77 1.43Q408.62-5.64 403.78-14.14L403.78-14.14Q394.26-4.91 380.90 2.34Q367.53 9.59 349.51 14.43L349.51 14.43L348.63 12.89Q365.84 4.32 377.42-6.59Q388.99-17.50 396.31-30.32L396.31-30.32Q392.80-39.55 390.34-49.77Q387.89-59.99 386.13-71.12L386.13-71.12Q378.81-61.82 369.14-54.42L369.14-54.42L367.53-55.52Q368.48-57.64 369.43-59.88Q370.39-62.11 371.41-64.53L371.41-64.53L356.40-64.53L356.40-25.20L382.03-31.05L382.32-29.37Q372.36-23.22 356.36-14.76Q340.36-6.30 316.48 4.47L316.48 4.47Q315.23 7.76 312.45 8.72L312.45 8.72L301.83-14.14L310.77-15.75L310.77-87.89L332.67-85.99Q332.45-84.74 331.57-83.86Q330.69-82.98 328.34-82.62L328.34-82.62L328.34-19.19L336.18-20.87L336.18-107.67L306.15-107.67L304.98-111.91L352.95-111.91L363.43-125.54Q363.43-125.54 365.33-124.04Q367.24-122.53 370.17-120.19Q373.10-117.85 376.32-115.14Q379.54-112.43 382.18-110.08L382.18-110.08Q381.52-107.67 378.00-107.67L378.00-107.67L356.40-107.67L356.40-70.53L364.53-82.76L374.56-73.17Q378.59-85.47 381.59-99.54Q384.59-113.60 385.77-127.81ZM402.76-43.65L402.76-43.65Q406.79-54.13 408.95-65.44Q411.11-76.76 411.77-88.62L411.77-88.62L397.63-88.62Q395.65-84.96 393.49-81.52Q391.33-78.08 389.14-74.85L389.14-74.85Q394.04-57.42 402.76-43.65Z"/>
    </svg>
        